<?xml version="1.0" encoding="UTF-8"?>
<svg id="Layer_2" xmlns="http://www.w3.org/2000/svg" viewBox="0 0 1115.49 593.42">
  <defs>
    <style>
      .cls-1 {
        fill: #897200;
      }
    </style>
  </defs>
  <g id="Layer_1-2" data-name="Layer_1">
    <g>
      <g>
        <path d="M526.61,289.03c-2.85,0-4.27-1.42-4.27-4.27v-11.73c-5.56,5.69-12.02,10.15-19.39,13.38-7.37,3.23-15.35,4.85-23.95,4.85-5.75,0-11.33-.76-16.72-2.28-5.4-1.52-10.46-3.67-15.17-6.45-4.72-2.78-9.02-6.11-12.89-9.99-3.88-3.88-7.22-8.18-10.03-12.89-2.81-4.72-4.98-9.77-6.5-15.17-1.52-5.4-2.28-11-2.28-16.82s.76-11.42,2.28-16.82c1.52-5.39,3.68-10.47,6.5-15.22,2.81-4.75,6.16-9.06,10.03-12.94s8.18-7.22,12.89-10.03c4.72-2.81,9.76-4.98,15.12-6.5,5.36-1.52,10.95-2.28,16.77-2.28,8.59,0,16.58,1.63,23.95,4.9,7.37,3.26,13.83,7.74,19.39,13.43v-86.64c0-1.16.4-2.16,1.21-3,.81-.84,1.89-1.26,3.25-1.26h10.08c1.16,0,2.17.39,3.01,1.16.84.77,1.26,1.81,1.26,3.1v189.21c0,2.84-1.52,4.27-4.56,4.27h-9.99ZM523.31,227.67c0-6.01-1.16-11.79-3.49-17.35-2.32-5.56-5.49-10.45-9.49-14.69-4-4.23-8.7-7.61-14.09-10.13-5.39-2.52-11.12-3.78-17.19-3.78s-11.77,1.26-17.09,3.78c-5.33,2.52-9.97,5.9-13.95,10.13-3.97,4.23-7.1,9.13-9.39,14.69-2.29,5.56-3.44,11.34-3.44,17.35s1.14,11.96,3.44,17.45c2.29,5.49,5.42,10.31,9.39,14.44,3.97,4.14,8.62,7.43,13.95,9.89,5.33,2.46,11.02,3.68,17.09,3.68s11.8-1.23,17.19-3.68c5.39-2.45,10.09-5.75,14.09-9.89,4-4.14,7.17-8.95,9.49-14.44,2.32-5.49,3.49-11.31,3.49-17.45Z"/>
        <path d="M587.59,182.2c5.56-5.69,12.03-10.16,19.41-13.43,7.37-3.26,15.36-4.9,23.97-4.9,5.76,0,11.34.76,16.74,2.28,5.4,1.52,10.46,3.68,15.19,6.5,4.72,2.81,9.02,6.16,12.9,10.03s7.23,8.19,10.04,12.94c2.81,4.75,4.98,9.82,6.5,15.22,1.52,5.4,2.28,11,2.28,16.82s-.76,11.42-2.28,16.82c-1.52,5.4-3.69,10.45-6.5,15.17-2.81,4.72-6.16,9.02-10.04,12.89-3.88,3.88-8.18,7.21-12.9,9.99-4.72,2.78-9.78,4.93-15.19,6.45s-10.98,2.28-16.74,2.28c-8.6,0-16.59-1.62-23.97-4.85-7.37-3.23-13.84-7.69-19.41-13.38v11.73c0,2.84-1.42,4.27-4.27,4.27h-9.99c-3.04,0-4.56-1.42-4.56-4.27V95.56c0-1.29.42-2.33,1.26-3.1.84-.78,1.84-1.16,3-1.16h10.08c1.36,0,2.44.42,3.25,1.26.81.84,1.21,1.84,1.21,3v86.64ZM586.62,227.67c0,6.14,1.16,11.96,3.49,17.45,2.33,5.49,5.49,10.31,9.5,14.44,4.01,4.14,8.69,7.43,14.06,9.89,5.36,2.46,11.12,3.68,17.26,3.68s11.78-1.23,17.11-3.68c5.33-2.45,9.98-5.75,13.96-9.89,3.97-4.14,7.11-8.95,9.4-14.44,2.29-5.49,3.44-11.31,3.44-17.45s-1.15-11.79-3.44-17.35c-2.29-5.56-5.43-10.45-9.4-14.69-3.97-4.23-8.63-7.61-13.96-10.13-5.33-2.52-11.04-3.78-17.11-3.78s-11.89,1.26-17.26,3.78c-5.37,2.52-10.05,5.9-14.06,10.13-4.01,4.23-7.17,9.13-9.5,14.69-2.33,5.56-3.49,11.34-3.49,17.35Z"/>
      </g>
      <polygon points="767.45 390.87 555.02 390.87 555.02 372.68 749.26 372.68 749.26 18.19 360.78 18.19 360.78 195.44 342.59 195.44 342.59 0 767.45 0 767.45 390.87"/>
      <g>
        <path d="M31.94,459.55c26.82,0,38.73,18.03,38.73,38.39s-11.46,39.51-38.73,39.51H0v-77.9h31.94ZM17.14,521.42h14.8c16.92,0,21.59-12.46,21.59-23.7s-5.34-22.48-21.59-22.48h-14.8v46.18Z"/>
        <path d="M143.12,537.45h-59.31v-77.9h57.76v15.91h-40.73v15.02h38.39v15.25h-38.39v15.69h42.29v16.03Z"/>
        <path d="M223.14,527.99c-8.01,7.9-18.36,11.46-29.94,11.46-29.71,0-41.51-19.14-41.62-40.4-.11-20.14,13.02-41.29,41.62-41.29,10.68,0,20.59,4.12,28.6,12.02l-10.91,10.79c-4.67-4.56-11.46-6.46-17.69-6.46-17.69,0-24.59,13.69-24.48,25.04.11,11.35,6.23,24.26,24.48,24.26,6.23,0,14.47-2.78,19.14-7.46l10.79,12.02Z"/>
        <path d="M233.49,537.45v-77.9h17.25v77.9h-17.25Z"/>
        <path d="M335.88,483.36l-24.04,30.27h-3.12l-23.26-30.49v54.42h-17.36v-77.9h19.92l22.7,29.93,22.81-29.93h19.7v77.9h-17.36v-54.19Z"/>
        <path d="M425.8,524.09h-39.95l-5.68,13.35h-18.7l34.94-77.9h18.92l34.94,77.9h-18.81l-5.68-13.35ZM405.88,477.13l-13.47,31.6h26.82l-13.35-31.6Z"/>
        <path d="M475.89,459.55v61.98h38.95v15.91h-56.31v-77.9h17.36Z"/>
        <path d="M587.07,459.55c14.8,0,27.04,6.68,27.04,21.14,0,6.45-2.89,12.46-10.35,15.91,9.9,3.56,14.02,13.58,12.35,22.59-2.34,12.58-12.8,18.25-28.38,18.25h-39.06v-77.9h38.39ZM565.7,489.82h21.15c6.79,0,10.13-2.78,10.13-7.35s-3.34-7.9-9.9-7.9h-21.37v15.25ZM565.7,522.31h21.37c7.79,0,11.46-3.45,11.46-8.9s-4.01-9.12-11.68-9.12h-21.15v18.03Z"/>
        <path d="M699.48,459.66v43.51c0,23.15-12.91,35.5-33.39,36.17-20.37.67-37.61-11.02-37.61-36.17v-43.51h17.25v43.51c0,13.91,7.79,21.14,20.48,20.59,11.8-.78,16.02-8.9,16.02-20.59v-43.51h17.25Z"/>
        <path d="M715.73,537.45v-77.9h17.25v77.9h-17.25Z"/>
        <path d="M767.7,459.55v61.98h38.95v15.91h-56.31v-77.9h17.36Z"/>
        <path d="M849.06,459.55c26.82,0,38.73,18.03,38.73,38.39s-11.46,39.51-38.73,39.51h-31.94v-77.9h31.94ZM834.25,521.42h14.8c16.92,0,21.59-12.46,21.59-23.7s-5.34-22.48-21.59-22.48h-14.8v46.18Z"/>
        <path d="M960.23,537.45h-59.31v-77.9h57.76v15.91h-40.73v15.02h38.39v15.25h-38.39v15.69h42.29v16.03Z"/>
        <path d="M1043.03,537.45h-19.25l-19.92-25.59h-12.57v25.59h-17.36v-77.9h36.95c18.81,0,28.82,12.57,28.82,26.26-.11,10.13-3.12,19.14-18.03,24.48l21.37,25.82v1.34ZM991.29,474.46v22.7h19.81c8.01,0,11.46-6.01,11.46-10.91-.11-5.34-3.56-11.8-11.68-11.8h-19.59Z"/>
        <path d="M1100.69,478.35c-4.34-4.56-11.91-6.57-18.03-6.57-7.68,0-13.91,3.23-13.91,8.57,0,7.12,6.79,8.46,16.8,9.35,15.36,1.34,29.93,7.23,29.93,25.26s-16.02,24.93-32.83,25.04c-13.47.11-27.49-5.12-34.05-16.03l10.35-10.79c6.01,7.68,15.91,11.02,23.81,11.02,9.24,0,15.58-3.67,15.58-9.24.11-6.57-5.12-9.57-15.69-10.46-16.47-1.56-31.16-5.68-30.94-24.04.11-15.47,14.8-23.7,30.83-23.7,12.02,0,21.03,2.67,29.05,12.02l-10.91,9.57Z"/>
      </g>
      <g>
        <path class="cls-1" d="M122.33,569.15v-.1h3.62l7.17,11.34,7.34-11.34h3.62v.1l-9.42,14.1v9.7h-3.07v-9.7l-9.25-14.1Z"/>
        <path class="cls-1" d="M169.04,581.06c-.04,6.25-3.93,12.36-12.12,12.36s-12.15-6.08-12.15-12.36c0-6.93,4.64-12.43,12.19-12.43,8.09.03,12.12,6.11,12.09,12.43ZM156.95,571.36c-6.08,0-9.22,4.47-9.22,9.7,0,4.85,2.94,9.56,9.22,9.56s9.12-4.85,9.12-9.56c.03-4.85-2.87-9.63-9.12-9.7Z"/>
        <path class="cls-1" d="M193.11,569.08v14.34c0,6.62-4.47,9.97-9.7,9.97s-9.8-3.28-9.8-9.97v-14.34h2.94v14.34c0,4.74,3.18,7.24,6.86,7.24s6.76-2.6,6.76-7.27v-14.34h2.9l.03.03Z"/>
        <path class="cls-1" d="M220.15,585.43h-.61l-8.67-12.15v19.67h-2.94v-23.9h3.55l8.4,12.29,8.33-12.29h3.55v23.9h-2.94v-19.6l-8.67,12.09Z"/>
        <path class="cls-1" d="M249.59,569.04l10.72,23.9h-3.21l-2.36-5.26h-13.66l-2.32,5.26h-3.24l10.72-23.9h3.35ZM247.91,572.05l-5.67,12.9h11.34l-5.67-12.9Z"/>
        <path class="cls-1" d="M264.06,569.01h8.71c8.13,0,12.02,5.8,12.02,11.71s-3.65,12.22-12.02,12.22h-8.71v-23.93ZM281.81,580.69c0-4.44-2.94-8.81-9.05-8.81h-5.74v18.1h5.74c6.35,0,9.05-4.71,9.05-9.29Z"/>
        <path class="cls-1" d="M289.67,569.04h16.8v2.73h-13.86v7.48h13.28v2.77h-13.28v8.09h14.41v2.83h-17.34v-23.9Z"/>
        <path class="cls-1" d="M316.95,569.15v-.1h3.62l7.17,11.34,7.34-11.34h3.62v.1l-9.42,14.1v9.7h-3.07v-9.7l-9.25-14.1Z"/>
        <path class="cls-1" d="M363.66,581.06c-.04,6.25-3.93,12.36-12.12,12.36s-12.15-6.08-12.15-12.36c0-6.93,4.64-12.43,12.19-12.43,8.09.03,12.12,6.11,12.09,12.43ZM351.57,571.36c-6.08,0-9.22,4.47-9.22,9.7,0,4.85,2.94,9.56,9.22,9.56s9.12-4.85,9.12-9.56c.03-4.85-2.87-9.63-9.12-9.7Z"/>
        <path class="cls-1" d="M387.73,569.08v14.34c0,6.62-4.47,9.97-9.7,9.97s-9.8-3.28-9.8-9.97v-14.34h2.94v14.34c0,4.74,3.18,7.24,6.86,7.24s6.76-2.6,6.76-7.27v-14.34h2.9l.03.03Z"/>
        <path class="cls-1" d="M402.58,584.34h-5.8v8.6h-2.97v-23.9h10.86c5.39,0,8.09,3.76,8.09,7.65.04,3.62-1.95,7-6.86,7.41l7.89,8.84h-3.75l-7.44-8.6ZM409.78,576.76c.03-2.39-1.67-5.05-5.12-5.05h-7.89v9.97h7.75c3.59,0,5.26-2.22,5.26-4.92Z"/>
        <path class="cls-1" d="M437.85,593.32c-8.43,0-12.43-5.84-12.46-12.19-.07-6.32,4.06-12.46,12.46-12.46,3.18,0,6.32,1.19,8.74,3.58l-2.05,1.91c-1.84-1.81-4.27-2.66-6.69-2.66-6.42,0-9.53,4.64-9.49,9.59.07,4.85,3.04,9.39,9.49,9.39,2.42,0,4.98-.96,6.79-2.77l2.08,2.05c-2.42,2.39-5.6,3.55-8.88,3.55Z"/>
        <path class="cls-1" d="M467.72,582.15h-13.66v10.79h-2.97v-23.9h2.97v10.35h13.66v-10.35h2.97v23.9h-2.97v-10.79Z"/>
        <path class="cls-1" d="M499.82,581.06c-.03,6.25-3.93,12.36-12.12,12.36s-12.15-6.08-12.15-12.36c0-6.93,4.64-12.43,12.19-12.43,8.09.03,12.12,6.11,12.09,12.43ZM487.73,571.36c-6.08,0-9.22,4.47-9.22,9.7,0,4.85,2.94,9.56,9.22,9.56s9.12-4.85,9.12-9.56c.03-4.85-2.87-9.63-9.12-9.7Z"/>
        <path class="cls-1" d="M504.67,569.04h2.97v23.9h-2.97v-23.9Z"/>
        <path class="cls-1" d="M524.98,593.32c-8.43,0-12.43-5.84-12.46-12.19-.07-6.32,4.06-12.46,12.46-12.46,3.18,0,6.32,1.19,8.74,3.58l-2.05,1.91c-1.84-1.81-4.27-2.66-6.69-2.66-6.42,0-9.53,4.64-9.49,9.59.07,4.85,3.04,9.39,9.49,9.39,2.42,0,4.98-.96,6.79-2.77l2.08,2.05c-2.42,2.39-5.6,3.55-8.88,3.55Z"/>
        <path class="cls-1" d="M538.23,569.04h16.8v2.73h-13.86v7.48h13.28v2.77h-13.28v8.09h14.41v2.83h-17.34v-23.9Z"/>
        <path class="cls-1" d="M563.19,591.44c0,2.42-3.69,2.42-3.69-.03s3.69-2.42,3.69.03Z"/>
        <path class="cls-1" d="M577.39,569.04l6.59,19.77,6.62-19.77h1.91l6.69,19.77,6.52-19.77h3.38l-8.36,23.93h-2.97l-6.21-17.89-6.18,17.89h-3l-8.33-23.93h3.35Z"/>
        <path class="cls-1" d="M613.17,569.04h16.8v2.73h-13.86v7.48h13.28v2.77h-13.28v8.09h14.41v2.83h-17.34v-23.9Z"/>
        <path class="cls-1" d="M656.36,585.43h-.61l-8.67-12.15v19.67h-2.94v-23.9h3.55l8.4,12.29,8.33-12.29h3.55v23.9h-2.94v-19.6l-8.67,12.09Z"/>
        <path class="cls-1" d="M685.79,569.04l10.72,23.9h-3.21l-2.36-5.26h-13.66l-2.32,5.26h-3.24l10.72-23.9h3.35ZM684.12,572.05l-5.67,12.9h11.34l-5.67-12.9Z"/>
        <path class="cls-1" d="M700.27,569.01h8.71c8.13,0,12.02,5.8,12.02,11.71s-3.65,12.22-12.02,12.22h-8.71v-23.93ZM718.02,580.69c0-4.44-2.94-8.81-9.05-8.81h-5.74v18.1h5.74c6.35,0,9.05-4.71,9.05-9.29Z"/>
        <path class="cls-1" d="M725.88,569.04h16.8v2.73h-13.86v7.48h13.28v2.77h-13.28v8.09h14.41v2.83h-17.34v-23.9Z"/>
        <path class="cls-1" d="M753.16,569.15v-.1h3.62l7.17,11.34,7.34-11.34h3.62v.1l-9.42,14.1v9.7h-3.07v-9.7l-9.25-14.1Z"/>
        <path class="cls-1" d="M799.86,581.06c-.04,6.25-3.93,12.36-12.12,12.36s-12.15-6.08-12.15-12.36c0-6.93,4.64-12.43,12.19-12.43,8.09.03,12.12,6.11,12.09,12.43ZM787.78,571.36c-6.08,0-9.22,4.47-9.22,9.7,0,4.85,2.94,9.56,9.22,9.56s9.12-4.85,9.12-9.56c.03-4.85-2.87-9.63-9.12-9.7Z"/>
        <path class="cls-1" d="M823.93,569.08v14.34c0,6.62-4.47,9.97-9.7,9.97s-9.8-3.28-9.8-9.97v-14.34h2.94v14.34c0,4.74,3.18,7.24,6.86,7.24s6.76-2.6,6.76-7.27v-14.34h2.9l.03.03Z"/>
        <path class="cls-1" d="M838.79,584.34h-5.8v8.6h-2.97v-23.9h10.86c5.39,0,8.09,3.76,8.09,7.65.04,3.62-1.95,7-6.86,7.41l7.89,8.84h-3.75l-7.44-8.6ZM845.99,576.76c.03-2.39-1.67-5.05-5.12-5.05h-7.89v9.97h7.75c3.59,0,5.26-2.22,5.26-4.92Z"/>
        <path class="cls-1" d="M863.06,569.01h8.71c8.13,0,12.02,5.8,12.02,11.71s-3.65,12.22-12.02,12.22h-8.71v-23.93ZM880.82,580.69c0-4.44-2.94-8.81-9.05-8.81h-5.74v18.1h5.74c6.35,0,9.05-4.71,9.05-9.29Z"/>
        <path class="cls-1" d="M897.45,584.34h-5.8v8.6h-2.97v-23.9h10.86c5.39,0,8.09,3.76,8.09,7.65.04,3.62-1.95,7-6.86,7.41l7.89,8.84h-3.75l-7.44-8.6ZM904.65,576.76c.03-2.39-1.67-5.05-5.12-5.05h-7.89v9.97h7.75c3.59,0,5.26-2.22,5.26-4.92Z"/>
        <path class="cls-1" d="M912.98,569.04h16.8v2.73h-13.86v7.48h13.28v2.77h-13.28v8.09h14.41v2.83h-17.34v-23.9Z"/>
        <path class="cls-1" d="M946.68,569.04l10.72,23.9h-3.21l-2.36-5.26h-13.66l-2.32,5.26h-3.24l10.72-23.9h3.35ZM945.01,572.05l-5.67,12.9h11.34l-5.67-12.9Z"/>
        <path class="cls-1" d="M973.38,585.43h-.61l-8.67-12.15v19.67h-2.94v-23.9h3.55l8.4,12.29,8.33-12.29h3.55v23.9h-2.94v-19.6l-8.67,12.09Z"/>
      </g>
    </g>
  </g>
</svg>