<?xml version="1.0" encoding="UTF-8"?>
<svg id="Layer_2" xmlns="http://www.w3.org/2000/svg" viewBox="0 0 1409.36 172.66">
  <g id="Layer_1-2" data-name="Layer_1">
    <g>
      <g>
        <path d="M40.35,3.52c33.88,0,48.93,22.78,48.93,48.51s-14.48,49.91-48.93,49.91H0V3.52h40.35ZM21.65,81.69h18.7c21.37,0,27.28-15.75,27.28-29.95s-6.75-28.4-27.28-28.4h-18.7v58.35Z"/>
        <path d="M180.82,101.94h-74.94V3.52h72.97v20.1h-51.46v18.98h48.51v19.26h-48.51v19.82h53.43v20.25Z"/>
        <path d="M281.92,89.99c-10.12,9.98-23.2,14.48-37.82,14.48-37.54,0-52.44-24.18-52.59-51.04-.14-25.45,16.45-52.16,52.59-52.16,13.5,0,26.01,5.2,36.13,15.19l-13.78,13.64c-5.91-5.76-14.48-8.16-22.36-8.16-22.36,0-31.07,17.3-30.93,31.64.14,14.34,7.87,30.65,30.93,30.65,7.87,0,18.28-3.52,24.18-9.42l13.64,15.19Z"/>
        <path d="M295.01,101.94V3.52h21.79v98.42h-21.79Z"/>
        <path d="M424.37,33.6l-30.37,38.24h-3.94l-29.38-38.52v68.75h-21.93V3.66h25.17l28.68,37.82,28.82-37.82h24.89v98.42h-21.93V33.6Z"/>
        <path d="M537.98,85.06h-50.48l-7.17,16.87h-23.62L500.86,3.52h23.9l44.15,98.42h-23.76l-7.17-16.87ZM512.81,25.73l-17.01,39.93h33.89l-16.87-39.93Z"/>
        <path d="M601.26,3.52v78.31h49.21v20.11h-71.14V3.52h21.93Z"/>
        <path d="M741.73,3.52c18.7,0,34.17,8.44,34.17,26.71,0,8.15-3.66,15.75-13.08,20.1,12.51,4.5,17.72,17.15,15.61,28.54-2.95,15.89-16.17,23.06-35.85,23.06h-49.35V3.52h48.51ZM714.74,41.76h26.72c8.58,0,12.79-3.52,12.79-9.28s-4.22-9.98-12.51-9.98h-27v19.26ZM714.74,82.81h27c9.84,0,14.48-4.36,14.48-11.25s-5.06-11.53-14.76-11.53h-26.72v22.78Z"/>
        <path d="M883.75,3.66v54.97c0,29.24-16.31,44.85-42.18,45.69-25.73.84-47.52-13.92-47.52-45.69V3.66h21.79v54.97c0,17.57,9.84,26.71,25.87,26.01,14.9-.99,20.25-11.25,20.25-26.01V3.66h21.79Z"/>
        <path d="M904.29,101.94V3.52h21.79v98.42h-21.79Z"/>
        <path d="M969.95,3.52v78.31h49.21v20.11h-71.14V3.52h21.93Z"/>
        <path d="M1072.74,3.52c33.88,0,48.93,22.78,48.93,48.51s-14.48,49.91-48.93,49.91h-40.35V3.52h40.35ZM1054.04,81.69h18.7c21.37,0,27.28-15.75,27.28-29.95s-6.75-28.4-27.28-28.4h-18.7v58.35Z"/>
        <path d="M1213.21,101.94h-74.94V3.52h72.97v20.1h-51.46v18.98h48.51v19.26h-48.51v19.82h53.43v20.25Z"/>
        <path d="M1317.82,101.94h-24.32l-25.17-32.34h-15.89v32.34h-21.93V3.52h46.68c23.76,0,36.41,15.89,36.41,33.18-.14,12.8-3.94,24.18-22.78,30.93l27,32.62v1.69ZM1252.44,22.36v28.68h25.03c10.12,0,14.48-7.59,14.48-13.78-.14-6.75-4.5-14.9-14.76-14.9h-24.75Z"/>
        <path d="M1390.66,27.28c-5.48-5.76-15.04-8.3-22.78-8.3-9.7,0-17.57,4.08-17.57,10.83,0,9,8.58,10.69,21.23,11.81,19.4,1.69,37.82,9.14,37.82,31.92s-20.25,31.49-41.48,31.64c-17.01.14-34.73-6.47-43.02-20.25l13.08-13.64c7.59,9.7,20.11,13.92,30.09,13.92,11.67,0,19.68-4.64,19.68-11.67.14-8.3-6.47-12.09-19.83-13.22-20.81-1.97-39.37-7.17-39.09-30.37.14-19.54,18.7-29.95,38.95-29.95,15.19,0,26.57,3.37,36.7,15.19l-13.78,12.09Z"/>
      </g>
      <g>
        <path d="M154.56,141.99v-.13h4.57l9.06,14.32,9.28-14.32h4.57v.13l-11.91,17.82v12.25h-3.88v-12.25l-11.69-17.82Z"/>
        <path d="M213.58,157.04c-.04,7.9-4.96,15.62-15.32,15.62s-15.36-7.68-15.36-15.62c0-8.76,5.87-15.7,15.4-15.7,10.22.04,15.32,7.72,15.27,15.7ZM198.3,144.79c-7.68,0-11.65,5.65-11.65,12.25,0,6.13,3.71,12.08,11.65,12.08s11.52-6.13,11.52-12.08c.04-6.13-3.62-12.16-11.52-12.25Z"/>
        <path d="M243.99,141.9v18.12c0,8.37-5.65,12.6-12.25,12.6s-12.38-4.14-12.38-12.6v-18.12h3.71v18.12c0,5.99,4.01,9.14,8.67,9.14s8.54-3.28,8.54-9.19v-18.12h3.67l.04.04Z"/>
        <path d="M278.15,162.56h-.78l-10.96-15.36v24.85h-3.71v-30.2h4.49l10.61,15.53,10.53-15.53h4.49v30.2h-3.71v-24.76l-10.96,15.27Z"/>
        <path d="M315.34,141.86l13.54,30.2h-4.05l-2.98-6.64h-17.25l-2.93,6.64h-4.1l13.55-30.2h4.23ZM313.22,145.65l-7.16,16.3h14.32l-7.16-16.3Z"/>
        <path d="M333.63,141.81h11c10.27,0,15.18,7.33,15.18,14.8s-4.62,15.44-15.18,15.44h-11v-30.24ZM356.06,156.57c0-5.61-3.71-11.13-11.43-11.13h-7.25v22.86h7.25c8.02,0,11.43-5.95,11.43-11.73Z"/>
        <path d="M365.98,141.86h21.22v3.45h-17.51v9.45h16.78v3.49h-16.78v10.22h18.2v3.58h-21.91v-30.2Z"/>
        <path d="M400.45,141.99v-.13h4.57l9.06,14.32,9.28-14.32h4.57v.13l-11.91,17.82v12.25h-3.88v-12.25l-11.69-17.82Z"/>
        <path d="M459.46,157.04c-.04,7.9-4.96,15.62-15.32,15.62s-15.36-7.68-15.36-15.62c0-8.76,5.87-15.7,15.4-15.7,10.22.04,15.32,7.72,15.27,15.7ZM444.19,144.79c-7.68,0-11.65,5.65-11.65,12.25,0,6.13,3.71,12.08,11.65,12.08s11.52-6.13,11.52-12.08c.04-6.13-3.62-12.16-11.52-12.25Z"/>
        <path d="M489.87,141.9v18.12c0,8.37-5.65,12.6-12.25,12.6s-12.38-4.14-12.38-12.6v-18.12h3.71v18.12c0,5.99,4.01,9.14,8.67,9.14s8.54-3.28,8.54-9.19v-18.12h3.67l.04.04Z"/>
        <path d="M508.64,161.18h-7.33v10.87h-3.75v-30.2h13.72c6.82,0,10.22,4.75,10.22,9.66.04,4.57-2.46,8.84-8.67,9.36l9.96,11.17h-4.74l-9.4-10.87ZM517.74,151.61c.04-3.02-2.11-6.38-6.47-6.38h-9.97v12.6h9.79c4.53,0,6.64-2.8,6.64-6.21Z"/>
        <path d="M553.2,172.53c-10.66,0-15.7-7.38-15.75-15.4-.09-7.98,5.13-15.74,15.75-15.74,4.01,0,7.98,1.51,11.04,4.53l-2.59,2.42c-2.33-2.29-5.39-3.36-8.45-3.36-8.11,0-12.04,5.87-11.99,12.12.09,6.13,3.84,11.86,11.99,11.86,3.06,0,6.3-1.21,8.58-3.5l2.63,2.59c-3.06,3.02-7.07,4.49-11.22,4.49Z"/>
        <path d="M590.94,158.42h-17.25v13.63h-3.75v-30.2h3.75v13.07h17.25v-13.07h3.75v30.2h-3.75v-13.63Z"/>
        <path d="M631.49,157.04c-.04,7.9-4.96,15.62-15.31,15.62s-15.36-7.68-15.36-15.62c0-8.76,5.87-15.7,15.4-15.7,10.22.04,15.32,7.72,15.27,15.7ZM616.22,144.79c-7.68,0-11.65,5.65-11.65,12.25,0,6.13,3.71,12.08,11.65,12.08s11.52-6.13,11.52-12.08c.04-6.13-3.62-12.16-11.52-12.25Z"/>
        <path d="M637.62,141.86h3.75v30.2h-3.75v-30.2Z"/>
        <path d="M663.28,172.53c-10.66,0-15.7-7.38-15.75-15.4-.09-7.98,5.13-15.74,15.75-15.74,4.01,0,7.98,1.51,11.04,4.53l-2.59,2.42c-2.33-2.29-5.39-3.36-8.45-3.36-8.11,0-12.04,5.87-11.99,12.12.09,6.13,3.84,11.86,11.99,11.86,3.06,0,6.3-1.21,8.58-3.5l2.63,2.59c-3.06,3.02-7.07,4.49-11.22,4.49Z"/>
        <path d="M680.02,141.86h21.22v3.45h-17.51v9.45h16.78v3.49h-16.78v10.22h18.2v3.58h-21.91v-30.2Z"/>
        <path d="M711.56,170.16c0,3.06-4.66,3.06-4.66-.04s4.66-3.06,4.66.04Z"/>
        <path d="M729.5,141.86l8.33,24.98,8.37-24.98h2.41l8.46,24.98,8.24-24.98h4.27l-10.57,30.24h-3.75l-7.85-22.6-7.81,22.6h-3.8l-10.53-30.24h4.23Z"/>
        <path d="M774.71,141.86h21.22v3.45h-17.51v9.45h16.78v3.49h-16.78v10.22h18.2v3.58h-21.91v-30.2Z"/>
        <path d="M829.28,162.56h-.78l-10.96-15.36v24.85h-3.71v-30.2h4.49l10.61,15.53,10.53-15.53h4.49v30.2h-3.71v-24.76l-10.96,15.27Z"/>
        <path d="M866.46,141.86l13.54,30.2h-4.05l-2.98-6.64h-17.25l-2.93,6.64h-4.1l13.55-30.2h4.23ZM864.35,145.65l-7.16,16.3h14.32l-7.16-16.3Z"/>
        <path d="M884.76,141.81h11c10.27,0,15.18,7.33,15.18,14.8s-4.62,15.44-15.18,15.44h-11v-30.24ZM907.19,156.57c0-5.61-3.71-11.13-11.43-11.13h-7.25v22.86h7.25c8.02,0,11.43-5.95,11.43-11.73Z"/>
        <path d="M917.11,141.86h21.22v3.45h-17.51v9.45h16.78v3.49h-16.78v10.22h18.2v3.58h-21.91v-30.2Z"/>
        <path d="M951.57,141.99v-.13h4.57l9.06,14.32,9.28-14.32h4.57v.13l-11.91,17.82v12.25h-3.88v-12.25l-11.69-17.82Z"/>
        <path d="M1010.59,157.04c-.04,7.9-4.96,15.62-15.32,15.62s-15.36-7.68-15.36-15.62c0-8.76,5.87-15.7,15.4-15.7,10.22.04,15.32,7.72,15.27,15.7ZM995.32,144.79c-7.68,0-11.65,5.65-11.65,12.25,0,6.13,3.71,12.08,11.65,12.08s11.52-6.13,11.52-12.08c.04-6.13-3.62-12.16-11.52-12.25Z"/>
        <path d="M1041,141.9v18.12c0,8.37-5.65,12.6-12.25,12.6s-12.38-4.14-12.38-12.6v-18.12h3.71v18.12c0,5.99,4.01,9.14,8.67,9.14s8.54-3.28,8.54-9.19v-18.12h3.67l.04.04Z"/>
        <path d="M1059.77,161.18h-7.33v10.87h-3.75v-30.2h13.72c6.82,0,10.22,4.75,10.22,9.66.04,4.57-2.46,8.84-8.67,9.36l9.96,11.17h-4.74l-9.4-10.87ZM1068.87,151.61c.04-3.02-2.11-6.38-6.47-6.38h-9.97v12.6h9.79c4.53,0,6.64-2.8,6.64-6.21Z"/>
        <path d="M1090.43,141.81h11c10.27,0,15.18,7.33,15.18,14.8s-4.62,15.44-15.18,15.44h-11v-30.24ZM1112.87,156.57c0-5.61-3.71-11.13-11.43-11.13h-7.25v22.86h7.25c8.02,0,11.43-5.95,11.43-11.73Z"/>
        <path d="M1133.88,161.18h-7.33v10.87h-3.75v-30.2h13.72c6.82,0,10.22,4.75,10.22,9.66.04,4.57-2.46,8.84-8.67,9.36l9.96,11.17h-4.74l-9.4-10.87ZM1142.98,151.61c.04-3.02-2.11-6.38-6.47-6.38h-9.97v12.6h9.79c4.53,0,6.64-2.8,6.64-6.21Z"/>
        <path d="M1153.5,141.86h21.22v3.45h-17.51v9.45h16.78v3.49h-16.78v10.22h18.2v3.58h-21.91v-30.2Z"/>
        <path d="M1196.08,141.86l13.54,30.2h-4.05l-2.98-6.64h-17.25l-2.93,6.64h-4.1l13.55-30.2h4.23ZM1193.97,145.65l-7.16,16.3h14.32l-7.16-16.3Z"/>
        <path d="M1229.81,162.56h-.78l-10.96-15.36v24.85h-3.71v-30.2h4.49l10.61,15.53,10.53-15.53h4.49v30.2h-3.71v-24.76l-10.96,15.27Z"/>
      </g>
    </g>
  </g>
</svg>